# xmcd CD database file
# Copyright (C) 1993-1998 Ti Kan
# 
# Track frame offsets:
#     150
#     13555
#     29430
#     41355
#     54392
#     68542
#     85200
#     96547
#     112815
#     126240
#     143222
#     156830
#     170050
#     185855
#     197057
#     212672
#     231530
#     248782
#     262502
#     277112
#     288357
# 
# Disc length: 4074 seconds
# 
# Revision: 1
# Processed by: cddbd v1.4b41PL1 Copyright (c) Steve Scherf et al.
# Submitted via: DiscPlay 4.0.4
# 
DISCID=320fe815
DTITLE=The Oak Ridge Boys - Room Service/Together
DYEAR=1900
DGENRE=
TTITLE0=If You Can't Find Love
TTITLE1=But I Do
TTITLE2=Callin' Baton Rouge
TTITLE3=It Could Have Been Ten Years Ago
TTITLE4=Lots Of Matchbooks
TTITLE5=If There Were Only Time For Love
TTITLE6=Cryin' Again
TTITLE7=I'll Be True To You
TTITLE8=Come On In
TTITLE9=Lay Down You Sword And Shield
TTITLE10=I Can Love You
TTITLE11=Whiskey Lady
TTITLE12=Ready To Take My Chances
TTITLE13=Trying To Love Two Women
TTITLE14=Heart Of Mine
TTITLE15=Beautiful You
TTITLE16=Take This Heart
TTITLE17=Love Takes Two
TTITLE18=A Little More Like Me (The Crucifixion)
TTITLE19=I Can't Imagine Laying Down (With Anyone But You)
TTITLE20=Holdin' On To You
EXTD=
EXTT0=
EXTT1=
EXTT2=
EXTT3=
EXTT4=
EXTT5=
EXTT6=
EXTT7=
EXTT8=
EXTT9=
EXTT10=
EXTT11=
EXTT12=
EXTT13=
EXTT14=
EXTT15=
EXTT16=
EXTT17=
EXTT18=
EXTT19=
EXTT20=
PLAYORDER=
